<svg height='300px' width='300px' xmlns="http://www.w3.org/2000/svg" xmlns:xlink="http://www.w3.org/1999/xlink" version="1.1" x="0px" y="0px" viewBox="0 0 100 100" enable-background="new 0 0 100 100" xml:space="preserve"><g><path fill="none" d="M21.033,35.681c2.066,0,3.735-1.668,3.735-3.69c0-2.031-1.669-3.702-3.735-3.702   c-2.059,0-3.729,1.67-3.729,3.702C17.303,34.013,18.974,35.681,21.033,35.681z"></path><g><path d="M12,15.667v67.556h76V81.82V15.667H12z M84.124,19.868V79.02H15.875V19.868H84.124z"></path><path d="M19.729,23.625v36.593h60.542V23.625H19.729z M24.323,55.641l-0.27,0.862v-0.862H24.323l8.379-26.582l15.135,18.298    l8.651-4.577l2.16,12.859H24.323V55.641z M69.504,41.917c-3.58,0-6.482-3.07-6.482-6.861s2.902-6.861,6.482-6.861    c3.583,0,6.487,3.071,6.487,6.861S73.087,41.917,69.504,41.917z"></path><polygon points="24.852,49.669 25.111,48.902 24.852,48.902   "></polygon><polygon points="24.852,48.902 24.852,49.669 25.111,48.902   "></polygon><rect x="19.729" y="65.536" width="15.397" height="9.853"></rect><rect x="42.483" y="65.536" width="15.4" height="9.853"></rect><rect x="64.874" y="65.536" width="15.397" height="9.853"></rect></g></g></svg>