<svg width="41" height="37" viewBox="0 0 41 37" fill="none" xmlns="http://www.w3.org/2000/svg">
<path d="M0 0V37H41V36.2315V0H0ZM38.909 2.30085V34.6981H2.0904V2.30085H38.909Z" fill="url(#paint0_linear)"/>
<path d="M4.16956 4.35852V24.4003H36.8305V4.35852H4.16956ZM6.64795 21.8935L6.50232 22.3656V21.8935H6.64795L11.1681 7.33466L19.3331 17.3563L24.0001 14.8495L25.1655 21.8923H6.64795V21.8935ZM31.022 14.377C29.0907 14.377 27.5251 12.6955 27.5251 10.6193C27.5251 8.54302 29.0907 6.86158 31.022 6.86158C32.9549 6.86158 34.5216 8.54348 34.5216 10.6193C34.5216 12.6951 32.9549 14.377 31.022 14.377Z" fill="url(#paint1_linear)"/>
<path d="M6.93335 18.6227L7.07298 18.2026H6.93335V18.6227Z" fill="url(#paint2_linear)"/>
<path d="M6.93335 18.2026V18.6227L7.07298 18.2026H6.93335Z" fill="url(#paint3_linear)"/>
<path d="M12.4758 27.313H4.16956V32.7094H12.4758V27.313Z" fill="url(#paint4_linear)"/>
<path d="M24.7527 27.313H16.4448V32.7094H24.7527V27.313Z" fill="url(#paint5_linear)"/>
<path d="M36.8305 27.313H28.5242V32.7094H36.8305V27.313Z" fill="url(#paint6_linear)"/>
<defs>
<linearGradient id="paint0_linear" x1="0" y1="18.5" x2="41" y2="18.5" gradientUnits="userSpaceOnUse">
<stop stop-color="#67439B"/>
<stop offset="1" stop-color="#8555C1"/>
</linearGradient>
<linearGradient id="paint1_linear" x1="4.1696" y1="14.3794" x2="36.8305" y2="14.3794" gradientUnits="userSpaceOnUse">
<stop stop-color="#67439B"/>
<stop offset="1" stop-color="#8555C1"/>
</linearGradient>
<linearGradient id="paint2_linear" x1="6.93332" y1="18.4127" x2="7.07305" y2="18.4127" gradientUnits="userSpaceOnUse">
<stop stop-color="#67439B"/>
<stop offset="1" stop-color="#8555C1"/>
</linearGradient>
<linearGradient id="paint3_linear" x1="6.93332" y1="18.4127" x2="7.07305" y2="18.4127" gradientUnits="userSpaceOnUse">
<stop stop-color="#67439B"/>
<stop offset="1" stop-color="#8555C1"/>
</linearGradient>
<linearGradient id="paint4_linear" x1="4.1696" y1="30.0111" x2="12.4759" y2="30.0111" gradientUnits="userSpaceOnUse">
<stop stop-color="#67439B"/>
<stop offset="1" stop-color="#8555C1"/>
</linearGradient>
<linearGradient id="paint5_linear" x1="16.4448" y1="30.0111" x2="24.7527" y2="30.0111" gradientUnits="userSpaceOnUse">
<stop stop-color="#67439B"/>
<stop offset="1" stop-color="#8555C1"/>
</linearGradient>
<linearGradient id="paint6_linear" x1="28.5241" y1="30.0111" x2="36.8304" y2="30.0111" gradientUnits="userSpaceOnUse">
<stop stop-color="#67439B"/>
<stop offset="1" stop-color="#8555C1"/>
</linearGradient>
</defs>
</svg>
